<svg viewBox="0 0 101.0002 63.1077" x="0" y="0" fill="none" xmlns="http://www.w3.org/2000/svg"><g id="Group 608" xmlns="http://www.w3.org/2000/svg">
<path id="Vector_25" d="M101,0h-100.623v54.578h100.623z" fill="white"/>
<path id="Vector_26" fill-rule="evenodd" clip-rule="evenodd" d="M101,44.026h-57.77l17.529,-44.026h40.241z" fill="#ED1C24"/>
<path id="Vector_27" fill-rule="evenodd" clip-rule="evenodd" d="M0.377,52.37v2.208h36.045l0.879,-2.208z" fill="#008C44"/>
<path id="Vector_28" fill-rule="evenodd" clip-rule="evenodd" d="M101,54.578v-2.208h-61.087l-0.879,2.208z" fill="#ED1C24"/>
<path id="Vector_29" fill-rule="evenodd" clip-rule="evenodd" d="M0.377,0h57.77l-17.529,44.026h-40.241z" fill="#008C44"/>
<path id="Vector_30" fill-rule="evenodd" clip-rule="evenodd" d="M19.222,36.896h63.182c18.08,-1.8946 17.022,-28.0001 0,-29.7654h-63.182c-16.903,1.7653 -18.021,27.8708 0,29.7654z" fill="white"/>
<path id="Vector_31" d="M85.73,23.5994h2.776c-0.084,1.8747 -0.506,3.3316 -1.271,4.3659c-0.765,1.0343 -1.798,1.5514 -3.103,1.5514c-1.465,0 -2.617,-0.6713 -3.452,-2.0089c-0.839,-1.3376 -1.256,-3.1674 -1.256,-5.4995c0,-2.3321 0.412,-4.1521 1.247,-5.4947c0.829,-1.3425 1.961,-2.0088 3.396,-2.0088c1.321,0 2.359,0.4972 3.118,1.4967c0.76,0.9945 1.182,2.4216 1.272,4.2714h-2.806c-0.045,-0.731 -0.194,-1.278 -0.452,-1.6509c-0.258,-0.368 -0.626,-0.5569 -1.097,-0.5569c-0.576,0 -1.003,0.3281 -1.291,0.9795c-0.288,0.6564 -0.432,1.6459 -0.432,2.9637c0,1.3177 0.154,2.2774 0.457,2.9437c0.302,0.6613 0.754,0.9994 1.345,0.9994c0.452,0 0.815,-0.2038 1.083,-0.6116c0.268,-0.4077 0.422,-0.9845 0.466,-1.7404zM70.446,29.1239h-2.651v-14.2462h3.57l1.261,7.1107c0.015,0.0944 0.05,0.3182 0.1,0.6613c0.049,0.3431 0.119,0.8205 0.213,1.4271c0.06,-0.4774 0.109,-0.895 0.159,-1.2531c0.05,-0.358 0.094,-0.6265 0.129,-0.8055l1.296,-7.1405h3.565v14.2462h-2.651l0.025,-7.0112c0,-0.4277 0,-0.8404 0,-1.2431c0,-0.4028 0.005,-0.8205 0.01,-1.2531c-0.1,0.7359 -0.219,1.5365 -0.358,2.4116l-0.02,0.1244l-1.127,6.9714h-2.046l-1.142,-6.8173c-0.055,-0.3083 -0.109,-0.6613 -0.159,-1.0641c-0.054,-0.4028 -0.124,-0.9448 -0.213,-1.626c0.015,0.6166 0.024,1.1387 0.029,1.5763c0.005,0.4375 0.01,0.7906 0.01,1.0541zM44.437,22.0132c0,-2.3221 0.427,-4.152 1.271,-5.4946c0.849,-1.3426 2.006,-2.0089 3.476,-2.0089c1.469,0 2.617,0.6713 3.461,2.0089c0.849,1.3426 1.271,3.1725 1.271,5.4946c0,2.3222 -0.422,4.1471 -1.271,5.4897c-0.844,1.3425 -2.001,2.0188 -3.461,2.0188c-1.46,0 -2.627,-0.6713 -3.476,-2.0188c-0.849,-1.3426 -1.271,-3.1725 -1.271,-5.4897zM47.396,22.0132c0,1.3525 0.144,2.3371 0.432,2.9736c0.288,0.6315 0.745,0.9497 1.361,0.9497c0.615,0 1.057,-0.3132 1.345,-0.9448c0.288,-0.6265 0.427,-1.616 0.427,-2.9735c0,-1.3575 -0.144,-2.352 -0.427,-2.9835c-0.288,-0.6315 -0.735,-0.9448 -1.345,-0.9448c-0.611,0 -1.068,0.3183 -1.361,0.9498c-0.288,0.6315 -0.432,1.626 -0.432,2.9785zM40.822,23.5994h2.775c-0.084,1.8747 -0.506,3.3316 -1.271,4.3659c-0.765,1.0343 -1.797,1.5514 -3.103,1.5514c-1.465,0 -2.617,-0.6713 -3.451,-2.0089c-0.84,-1.3376 -1.257,-3.1674 -1.257,-5.4995c0,-2.3321 0.417,-4.1521 1.247,-5.4947c0.829,-1.3425 1.961,-2.0088 3.396,-2.0088c1.321,0 2.359,0.4972 3.119,1.4967c0.759,0.9945 1.181,2.4216 1.271,4.2714h-2.806c-0.045,-0.731 -0.194,-1.278 -0.452,-1.6509c-0.258,-0.368 -0.625,-0.5569 -1.097,-0.5569c-0.576,0 -1.003,0.3281 -1.291,0.9795c-0.288,0.6564 -0.432,1.6459 -0.432,2.9637c0,1.3177 0.154,2.2774 0.457,2.9437c0.303,0.6613 0.754,0.9994 1.345,0.9994c0.452,0 0.815,-0.2038 1.083,-0.6116c0.268,-0.4077 0.422,-0.9845 0.467,-1.7404zM26.878,29.1239v-14.2462h6.907v3.5901h-3.972v2.2078h3.163v3.446h-3.163v5.0073h-2.93zM18.859,29.1239v-14.2462h6.907v3.5901h-3.973v2.2078h3.159v3.446h-3.159v5.0073h-2.929zM14.092,29.1239v-14.2462h2.989v14.2462z" fill="#231F20"/>
<path id="Vector_32" d="M63.222,20.5762h-6.346v2.8741h6.346z" fill="#231F20"/>
<path id="Vector_33" d="M82.404,50.665v-4.461h2.9v0.552h-2.354v1.333h2.175v0.522h-2.175v1.497h2.398v0.557zM79.251,49.009h0.536c-0.025,0.542 -0.194,0.975 -0.507,1.298c-0.313,0.323 -0.72,0.482 -1.216,0.482c-0.571,0 -1.023,-0.214 -1.346,-0.641c-0.323,-0.428 -0.487,-1.02 -0.487,-1.781c0,-0.701 0.169,-1.253 0.512,-1.665c0.343,-0.413 0.799,-0.617 1.375,-0.617c0.462,0 0.84,0.129 1.133,0.393c0.293,0.258 0.461,0.616 0.511,1.064h-0.541c-0.05,-0.293 -0.174,-0.522 -0.368,-0.681c-0.193,-0.159 -0.442,-0.239 -0.754,-0.239c-0.413,0 -0.73,0.159 -0.959,0.477c-0.228,0.319 -0.342,0.766 -0.342,1.343c0,0.547 0.119,0.98 0.352,1.313c0.238,0.328 0.551,0.492 0.939,0.492c0.332,0 0.605,-0.114 0.819,-0.343c0.213,-0.229 0.328,-0.527 0.343,-0.9zM70.352,50.665v-4.461h0.606l1.897,3.242c0.045,0.07 0.079,0.14 0.109,0.199c0.03,0.06 0.055,0.12 0.075,0.174v-3.615h0.526v4.461h-0.601l-1.941,-3.287c-0.03,-0.05 -0.055,-0.104 -0.08,-0.159c-0.025,-0.055 -0.05,-0.11 -0.069,-0.174v3.615h-0.527zM64.776,50.665v-4.461h2.9v0.552h-2.354v1.333h2.175v0.522h-2.175v1.497h2.398v0.557zM61.369,50.665v-4.461h0.552v4.461zM58.201,49.009h0.537c-0.025,0.542 -0.194,0.975 -0.507,1.298c-0.313,0.323 -0.72,0.482 -1.216,0.482c-0.571,0 -1.023,-0.214 -1.346,-0.641c-0.323,-0.428 -0.487,-1.02 -0.487,-1.781c0,-0.701 0.169,-1.253 0.512,-1.665c0.342,-0.413 0.799,-0.617 1.375,-0.617c0.462,0 0.839,0.129 1.132,0.393c0.293,0.258 0.462,0.616 0.512,1.064h-0.541c-0.05,-0.293 -0.174,-0.522 -0.368,-0.681c-0.194,-0.159 -0.442,-0.239 -0.755,-0.239c-0.412,0 -0.73,0.159 -0.958,0.477c-0.228,0.319 -0.343,0.766 -0.343,1.343c0,0.547 0.12,0.98 0.353,1.313c0.238,0.328 0.551,0.492 0.938,0.492c0.333,0 0.606,-0.114 0.82,-0.343c0.213,-0.229 0.327,-0.527 0.342,-0.9zM49.551,49.198h0.532c0.005,0.323 0.104,0.582 0.293,0.771c0.188,0.189 0.446,0.288 0.764,0.288c0.318,0 0.561,-0.075 0.745,-0.219c0.184,-0.144 0.273,-0.343 0.273,-0.592c0,-0.343 -0.342,-0.601 -1.023,-0.78c-0.039,-0.01 -0.069,-0.02 -0.094,-0.025c-0.551,-0.144 -0.919,-0.303 -1.092,-0.482c-0.179,-0.174 -0.269,-0.428 -0.269,-0.751c0,-0.398 0.134,-0.716 0.398,-0.96c0.263,-0.239 0.615,-0.363 1.057,-0.363c0.442,0 0.805,0.129 1.063,0.378c0.258,0.254 0.387,0.602 0.392,1.044h-0.526c-0.02,-0.293 -0.109,-0.527 -0.278,-0.686c-0.169,-0.159 -0.397,-0.239 -0.685,-0.239c-0.269,0 -0.487,0.065 -0.651,0.194c-0.164,0.13 -0.243,0.304 -0.243,0.522c0,0.343 0.332,0.602 1.003,0.771c0.099,0.025 0.174,0.045 0.228,0.06c0.01,0 0.03,0.005 0.06,0.015c0.437,0.114 0.73,0.238 0.874,0.373c0.109,0.099 0.193,0.223 0.248,0.368c0.06,0.144 0.084,0.308 0.084,0.482c0,0.428 -0.139,0.771 -0.422,1.024c-0.283,0.254 -0.66,0.383 -1.137,0.383c-0.476,0 -0.879,-0.134 -1.152,-0.413c-0.273,-0.273 -0.422,-0.666 -0.442,-1.178zM34.833,50.665v-4.461h1.495c0.243,0 0.427,0.015 0.556,0.04c0.124,0.025 0.238,0.07 0.338,0.129c0.164,0.1 0.293,0.244 0.382,0.438c0.089,0.194 0.134,0.423 0.134,0.681c0,0.259 -0.045,0.468 -0.134,0.657c-0.089,0.189 -0.218,0.343 -0.387,0.452c-0.1,0.065 -0.214,0.11 -0.343,0.139c-0.129,0.03 -0.347,0.04 -0.65,0.04h-0.84v1.88h-0.551zM35.384,48.248h0.929c0.323,0 0.546,-0.055 0.675,-0.169c0.129,-0.114 0.194,-0.308 0.194,-0.582c0,-0.273 -0.065,-0.452 -0.189,-0.572c-0.129,-0.114 -0.337,-0.174 -0.635,-0.174h-0.969v1.492zM28.318,48.442c0,-0.736 0.169,-1.313 0.512,-1.725c0.342,-0.413 0.814,-0.622 1.42,-0.622c0.606,0 1.073,0.209 1.41,0.622c0.343,0.412 0.512,0.989 0.512,1.73c0,0.741 -0.169,1.313 -0.512,1.73c-0.337,0.413 -0.809,0.622 -1.41,0.622c-0.601,0 -1.078,-0.209 -1.42,-0.622c-0.343,-0.412 -0.512,-0.989 -0.512,-1.73zM28.889,48.442c0,0.572 0.12,1.019 0.363,1.343c0.238,0.323 0.576,0.482 0.998,0.482c0.422,0 0.755,-0.159 0.993,-0.482c0.239,-0.324 0.358,-0.771 0.358,-1.343c0,-0.572 -0.119,-1.019 -0.358,-1.343c-0.238,-0.323 -0.571,-0.482 -0.993,-0.482c-0.422,0 -0.76,0.159 -0.998,0.482c-0.238,0.319 -0.363,0.766 -0.363,1.343zM22.772,46.204h1.574c0.253,0 0.442,0.01 0.566,0.035c0.119,0.025 0.228,0.065 0.323,0.12c0.174,0.104 0.303,0.248 0.392,0.427c0.089,0.184 0.134,0.398 0.134,0.647c0,0.248 -0.05,0.447 -0.139,0.616c-0.094,0.169 -0.233,0.304 -0.417,0.403c0.159,0.05 0.268,0.129 0.338,0.244c0.064,0.114 0.109,0.308 0.124,0.581l0.044,0.736c0.01,0.159 0.03,0.274 0.055,0.353c0.03,0.08 0.07,0.135 0.129,0.164v0.125h-0.635c-0.05,-0.095 -0.09,-0.294 -0.11,-0.597v-0.02l-0.034,-0.582c-0.02,-0.298 -0.075,-0.492 -0.174,-0.581c-0.1,-0.09 -0.343,-0.135 -0.73,-0.135h-0.894v1.91h-0.546v-4.46zM23.313,46.732v1.511h0.944c0.342,0 0.581,-0.06 0.725,-0.184c0.139,-0.119 0.213,-0.323 0.213,-0.606c0,-0.264 -0.064,-0.453 -0.199,-0.562c-0.134,-0.11 -0.377,-0.164 -0.734,-0.164h-0.944zM19.619,49.009h0.536c-0.025,0.542 -0.194,0.975 -0.507,1.298c-0.312,0.323 -0.72,0.482 -1.216,0.482c-0.571,0 -1.023,-0.214 -1.346,-0.641c-0.323,-0.428 -0.486,-1.02 -0.486,-1.781c0,-0.701 0.168,-1.253 0.511,-1.665c0.343,-0.413 0.8,-0.617 1.376,-0.617c0.461,0 0.839,0.129 1.132,0.393c0.293,0.258 0.461,0.616 0.511,1.064h-0.541c-0.05,-0.293 -0.174,-0.522 -0.368,-0.681c-0.193,-0.159 -0.441,-0.239 -0.754,-0.239c-0.412,0 -0.73,0.159 -0.959,0.477c-0.228,0.319 -0.342,0.766 -0.342,1.343c0,0.547 0.119,0.98 0.352,1.313c0.239,0.328 0.551,0.492 0.939,0.492c0.332,0 0.606,-0.114 0.819,-0.343c0.214,-0.229 0.328,-0.527 0.343,-0.9z" fill="black"/>
<g id="Group 635">
<path id="Vector_34" d="M46.292,57.778h-9.325v4.048h9.325z" fill="#008641"/>
<path id="Vector_35" fill-rule="evenodd" clip-rule="evenodd" d="M38.831,58.382h5.597c0.716,0 1.305,0.639 1.305,1.42c0,0.781 -0.589,1.419 -1.305,1.419h-5.597c-0.716,0 -1.305,-0.638 -1.305,-1.419c0,-0.781 0.589,-1.42 1.305,-1.42z" fill="white"/>
<path id="Vector_36" d="M43.291,59.802c0,-0.3 0.068,-0.541 0.201,-0.713c0.137,-0.171 0.319,-0.26 0.554,-0.26c0.236,0 0.417,0.089 0.55,0.26c0.137,0.177 0.201,0.413 0.201,0.713c0,0.299 -0.069,0.54 -0.201,0.712c-0.133,0.177 -0.319,0.26 -0.55,0.26c-0.23,0 -0.417,-0.088 -0.554,-0.26c-0.137,-0.177 -0.201,-0.413 -0.201,-0.712zM43.762,59.802c0,0.177 0.024,0.304 0.068,0.388c0.045,0.083 0.118,0.123 0.216,0.123c0.098,0 0.167,-0.04 0.216,-0.123c0.044,-0.084 0.069,-0.211 0.069,-0.388c0,-0.177 -0.025,-0.305 -0.069,-0.388c-0.044,-0.084 -0.118,-0.123 -0.216,-0.123c-0.098,0 -0.171,0.039 -0.216,0.123c-0.044,0.083 -0.068,0.211 -0.068,0.388zM42.712,60.008h0.441c-0.014,0.246 -0.078,0.432 -0.201,0.57c-0.122,0.132 -0.284,0.201 -0.495,0.201c-0.236,0 -0.417,-0.088 -0.55,-0.26c-0.132,-0.172 -0.201,-0.413 -0.201,-0.717c0,-0.305 0.064,-0.541 0.197,-0.713c0.132,-0.171 0.314,-0.26 0.539,-0.26c0.211,0 0.378,0.064 0.496,0.197c0.122,0.127 0.186,0.314 0.201,0.555h-0.447c-0.005,-0.094 -0.029,-0.167 -0.073,-0.216c-0.039,-0.05 -0.098,-0.074 -0.177,-0.074c-0.093,0 -0.162,0.044 -0.206,0.128c-0.044,0.083 -0.069,0.216 -0.069,0.383c0,0.167 0.025,0.294 0.074,0.383c0.049,0.088 0.118,0.128 0.216,0.128c0.073,0 0.127,-0.025 0.172,-0.079c0.044,-0.054 0.068,-0.128 0.073,-0.226zM40.495,60.725v-1.852h1.099v0.467h-0.633v0.285h0.505v0.447h-0.505v0.653zM39.219,60.725v-1.852h1.099v0.467h-0.633v0.285h0.506v0.447h-0.506v0.653zM38.459,60.725v-1.852h0.476v1.852z" fill="#008641"/>
<path id="Vector_37" d="M56.789,61.889c0.206,-0.019 0.339,-0.068 0.397,-0.142c0.059,-0.074 0.089,-0.246 0.089,-0.516v-2.088c0,-0.186 -0.03,-0.304 -0.084,-0.363c-0.059,-0.054 -0.186,-0.088 -0.392,-0.098v-0.094h0.986l1.153,2.565l1.123,-2.565h0.996v0.094c-0.187,0.014 -0.304,0.049 -0.358,0.103c-0.054,0.054 -0.079,0.177 -0.079,0.358v2.294c0,0.187 0.025,0.31 0.079,0.359c0.054,0.054 0.171,0.088 0.358,0.103v0.084h-1.398v-0.099c0.201,-0.014 0.328,-0.054 0.377,-0.113c0.05,-0.058 0.074,-0.196 0.074,-0.412v-2.309l-1.285,2.928h-0.069l-1.265,-2.805v2.048c0,0.28 0.039,0.462 0.117,0.55c0.054,0.055 0.172,0.094 0.353,0.113v0.099h-1.177v-0.099z" fill="#231F20"/>
<path id="Vector_38" d="M61.415,58.559c0.049,-0.049 0.108,-0.079 0.181,-0.079c0.074,0 0.128,0.025 0.182,0.079c0.049,0.049 0.073,0.113 0.073,0.187c0,0.073 -0.024,0.132 -0.073,0.181c-0.049,0.05 -0.108,0.074 -0.182,0.074c-0.073,0 -0.132,-0.024 -0.181,-0.074c-0.049,-0.049 -0.074,-0.113 -0.074,-0.181c0,-0.069 0.025,-0.133 0.074,-0.187zM61.027,61.904c0.177,-0.014 0.285,-0.049 0.329,-0.093c0.044,-0.044 0.069,-0.162 0.069,-0.359v-1.179c0,-0.108 -0.005,-0.181 -0.02,-0.226c-0.024,-0.068 -0.078,-0.103 -0.152,-0.103c-0.02,0 -0.034,0 -0.054,0.005c-0.015,0 -0.069,0.015 -0.147,0.04v-0.079l0.103,-0.034c0.284,-0.094 0.486,-0.167 0.598,-0.217c0.044,-0.019 0.074,-0.029 0.089,-0.029c0,0.01 0.005,0.024 0.005,0.039v1.798c0,0.192 0.024,0.31 0.068,0.359c0.044,0.049 0.147,0.078 0.304,0.093v0.069h-1.192z" fill="#231F20"/>
<path id="Vector_39" d="M63.363,59.679v0.182h-0.495v1.439c0,0.128 0.004,0.221 0.029,0.285c0.039,0.113 0.118,0.172 0.23,0.172c0.059,0 0.108,-0.015 0.153,-0.044c0.044,-0.03 0.093,-0.074 0.147,-0.133l0.063,0.054l-0.053,0.074c-0.084,0.118 -0.172,0.201 -0.27,0.25c-0.093,0.049 -0.187,0.074 -0.275,0.074c-0.191,0 -0.324,-0.088 -0.387,-0.26c-0.04,-0.094 -0.054,-0.226 -0.054,-0.393v-1.518h-0.265c0,0 -0.015,-0.01 -0.02,-0.015c0,0 -0.005,-0.01 -0.005,-0.02c0,-0.014 0,-0.029 0.01,-0.039c0.005,-0.01 0.029,-0.029 0.069,-0.064c0.112,-0.093 0.191,-0.172 0.24,-0.231c0.049,-0.059 0.167,-0.216 0.348,-0.471c0.02,0 0.035,0 0.04,0.005c0,0 0.004,0.014 0.004,0.039v0.614z" fill="#231F20"/>
<path id="Vector_40" d="M63.643,61.197h0.078c0.039,0.191 0.088,0.334 0.152,0.437c0.113,0.187 0.28,0.28 0.501,0.28c0.122,0 0.22,-0.034 0.289,-0.103c0.069,-0.069 0.108,-0.157 0.108,-0.27c0,-0.069 -0.02,-0.138 -0.064,-0.202c-0.039,-0.064 -0.113,-0.127 -0.216,-0.191l-0.274,-0.162c-0.202,-0.108 -0.349,-0.221 -0.442,-0.334c-0.093,-0.113 -0.142,-0.246 -0.142,-0.398c0,-0.187 0.064,-0.339 0.196,-0.462c0.132,-0.123 0.294,-0.182 0.495,-0.182c0.089,0 0.182,0.015 0.285,0.049c0.103,0.035 0.162,0.049 0.177,0.049c0.029,0 0.049,0 0.063,-0.014c0.015,-0.01 0.025,-0.025 0.035,-0.04h0.059l0.014,0.703h-0.073c-0.035,-0.162 -0.079,-0.29 -0.133,-0.378c-0.103,-0.167 -0.25,-0.251 -0.441,-0.251c-0.113,0 -0.206,0.035 -0.27,0.108c-0.064,0.074 -0.098,0.157 -0.098,0.256c0,0.152 0.113,0.289 0.338,0.412l0.324,0.177c0.348,0.197 0.52,0.423 0.52,0.678c0,0.196 -0.074,0.359 -0.216,0.486c-0.142,0.128 -0.333,0.187 -0.564,0.187c-0.098,0 -0.206,-0.015 -0.329,-0.049c-0.122,-0.035 -0.196,-0.049 -0.22,-0.049c-0.02,0 -0.04,0.005 -0.049,0.019c-0.015,0.015 -0.025,0.035 -0.035,0.054h-0.068v-0.805z" fill="#231F20"/>
<path id="Vector_41" d="M65.874,59.664v1.602c0,0.113 0.015,0.206 0.045,0.275c0.059,0.127 0.171,0.191 0.333,0.191c0.113,0 0.221,-0.039 0.324,-0.113c0.059,-0.044 0.123,-0.098 0.181,-0.172v-1.37c0,-0.128 -0.024,-0.211 -0.073,-0.251c-0.049,-0.039 -0.147,-0.064 -0.294,-0.073v-0.084h0.784v1.764c0,0.113 0.02,0.191 0.059,0.235c0.04,0.045 0.123,0.064 0.25,0.059v0.069c-0.088,0.025 -0.152,0.044 -0.196,0.059c-0.044,0.015 -0.113,0.034 -0.211,0.069c-0.039,0.015 -0.132,0.049 -0.274,0.108c-0.01,0 -0.015,0 -0.015,-0.01c0,-0.01 0,-0.015 0,-0.025v-0.402c-0.113,0.137 -0.211,0.235 -0.304,0.304c-0.138,0.098 -0.285,0.153 -0.442,0.153c-0.142,0 -0.274,-0.05 -0.402,-0.158c-0.127,-0.103 -0.191,-0.275 -0.191,-0.515v-1.302c0,-0.133 -0.03,-0.226 -0.084,-0.27c-0.034,-0.03 -0.112,-0.049 -0.23,-0.059v-0.069h0.731z" fill="#231F20"/>
<path id="Vector_42" d="M68.151,61.614v-1.272c0,-0.113 0.054,-0.201 0.162,-0.275c0.108,-0.074 0.221,-0.108 0.333,-0.108c0.226,0 0.393,0.103 0.491,0.314c0.103,0.212 0.152,0.438 0.152,0.688c0,0.251 -0.054,0.457 -0.162,0.634c-0.108,0.177 -0.275,0.26 -0.5,0.26c-0.084,0 -0.182,-0.02 -0.295,-0.054c-0.112,-0.039 -0.171,-0.098 -0.186,-0.187M67.513,58.78c0.093,0 0.157,0.02 0.182,0.059c0.024,0.039 0.039,0.108 0.039,0.206v2.658c0,0.074 0.088,0.147 0.26,0.221c0.172,0.074 0.353,0.108 0.53,0.108c0.358,0 0.647,-0.128 0.868,-0.378c0.221,-0.251 0.329,-0.555 0.329,-0.909c0,-0.329 -0.084,-0.599 -0.255,-0.806c-0.167,-0.206 -0.373,-0.309 -0.609,-0.309c-0.196,0 -0.368,0.064 -0.515,0.187c-0.083,0.073 -0.147,0.147 -0.191,0.226v-1.533c0,0 0,-0.02 -0.005,-0.03c-0.01,0 -0.093,0.025 -0.24,0.079c-0.148,0.054 -0.319,0.098 -0.506,0.143v0.083l0.113,-0.01z" fill="#231F20"/>
<path id="Vector_43" d="M70.039,58.559c0.049,-0.049 0.108,-0.079 0.181,-0.079c0.074,0 0.128,0.025 0.182,0.079c0.049,0.049 0.073,0.113 0.073,0.187c0,0.073 -0.024,0.132 -0.073,0.181c-0.049,0.05 -0.108,0.074 -0.182,0.074c-0.073,0 -0.132,-0.024 -0.181,-0.074c-0.049,-0.049 -0.074,-0.113 -0.074,-0.181c0,-0.069 0.025,-0.133 0.074,-0.187zM69.646,61.914c0.177,-0.015 0.285,-0.049 0.329,-0.093c0.044,-0.044 0.069,-0.162 0.069,-0.359v-1.189c0,-0.108 -0.005,-0.181 -0.02,-0.226c-0.024,-0.068 -0.078,-0.103 -0.157,-0.103c-0.019,0 -0.034,0 -0.054,0.005c-0.019,0 -0.068,0.015 -0.147,0.04v-0.079l0.108,-0.034c0.285,-0.094 0.486,-0.167 0.598,-0.217c0.045,-0.019 0.074,-0.029 0.089,-0.029c0,0.01 0.005,0.024 0.005,0.039v1.798c0,0.192 0.024,0.31 0.068,0.359c0.045,0.049 0.148,0.078 0.304,0.093v0.069h-1.192v-0.069z" fill="#231F20"/>
<path id="Vector_44" d="M71,61.197h0.079c0.039,0.191 0.088,0.334 0.152,0.437c0.112,0.187 0.279,0.28 0.5,0.28c0.123,0 0.221,-0.034 0.289,-0.103c0.069,-0.069 0.108,-0.157 0.108,-0.27c0,-0.069 -0.019,-0.138 -0.059,-0.202c-0.039,-0.064 -0.112,-0.127 -0.215,-0.191l-0.275,-0.162c-0.201,-0.108 -0.348,-0.221 -0.442,-0.334c-0.093,-0.113 -0.142,-0.246 -0.142,-0.398c0,-0.187 0.064,-0.339 0.196,-0.462c0.133,-0.123 0.295,-0.182 0.491,-0.182c0.088,0 0.181,0.015 0.284,0.049c0.103,0.035 0.162,0.049 0.177,0.049c0.029,0 0.049,0 0.064,-0.014c0.014,-0.01 0.024,-0.025 0.034,-0.04h0.059l0.015,0.703h-0.074c-0.034,-0.162 -0.078,-0.29 -0.132,-0.378c-0.103,-0.167 -0.246,-0.251 -0.442,-0.251c-0.113,0 -0.206,0.035 -0.27,0.108c-0.063,0.074 -0.098,0.157 -0.098,0.256c0,0.152 0.113,0.289 0.339,0.412l0.323,0.177c0.349,0.197 0.52,0.423 0.52,0.678c0,0.196 -0.073,0.359 -0.215,0.486c-0.143,0.128 -0.334,0.187 -0.565,0.187c-0.098,0 -0.206,-0.015 -0.328,-0.049c-0.123,-0.035 -0.196,-0.049 -0.221,-0.049c-0.02,0 -0.034,0.005 -0.049,0.019c-0.015,0.015 -0.024,0.035 -0.034,0.054h-0.069v-0.805z" fill="#231F20"/>
<path id="Vector_45" d="M72.531,61.914c0.133,-0.02 0.221,-0.054 0.265,-0.103c0.044,-0.049 0.064,-0.167 0.064,-0.349v-2.407c0,-0.093 -0.01,-0.162 -0.034,-0.206c-0.025,-0.044 -0.079,-0.064 -0.172,-0.064c-0.02,0 -0.034,0 -0.054,0c-0.015,0 -0.034,0.005 -0.059,0.01v-0.089c0.074,-0.024 0.162,-0.049 0.27,-0.078c0.108,-0.03 0.181,-0.054 0.221,-0.069l0.235,-0.079v0.02l0.005,1.543c0.103,-0.118 0.191,-0.207 0.27,-0.266c0.142,-0.098 0.294,-0.147 0.461,-0.147c0.26,0 0.441,0.113 0.535,0.339c0.054,0.118 0.078,0.28 0.078,0.471v1.022c0,0.177 0.02,0.295 0.059,0.344c0.039,0.054 0.123,0.088 0.245,0.103v0.069h-1.059v-0.069c0.142,-0.019 0.235,-0.054 0.274,-0.103c0.04,-0.049 0.059,-0.167 0.059,-0.349v-1.012c0,-0.162 -0.024,-0.294 -0.078,-0.393c-0.054,-0.098 -0.152,-0.152 -0.3,-0.152c-0.127,0 -0.25,0.044 -0.367,0.143c-0.118,0.093 -0.177,0.152 -0.177,0.181v1.233c0,0.187 0.02,0.305 0.064,0.354c0.044,0.049 0.132,0.079 0.274,0.098v0.069h-1.084v-0.069z" fill="#231F20"/>
<path id="Vector_46" d="M75.376,58.559c0.049,-0.049 0.108,-0.079 0.181,-0.079c0.074,0 0.128,0.025 0.182,0.079c0.049,0.049 0.073,0.113 0.073,0.187c0,0.073 -0.024,0.132 -0.073,0.181c-0.049,0.05 -0.108,0.074 -0.182,0.074c-0.073,0 -0.132,-0.024 -0.181,-0.074c-0.049,-0.049 -0.074,-0.113 -0.074,-0.181c0,-0.069 0.025,-0.133 0.074,-0.187zM74.988,61.914c0.177,-0.015 0.285,-0.049 0.329,-0.093c0.044,-0.044 0.069,-0.162 0.069,-0.359v-1.189c0,-0.108 -0.01,-0.181 -0.025,-0.226c-0.024,-0.068 -0.078,-0.103 -0.152,-0.103c-0.02,0 -0.034,0 -0.054,0.005c-0.015,0 -0.069,0.015 -0.147,0.04v-0.079l0.103,-0.034c0.284,-0.094 0.486,-0.167 0.598,-0.217c0.045,-0.019 0.074,-0.029 0.089,-0.029c0,0.01 0.005,0.024 0.005,0.039v1.798c0,0.192 0.024,0.31 0.068,0.359c0.044,0.049 0.147,0.078 0.304,0.093v0.069h-1.192v-0.069z" fill="#231F20"/>
<path id="Vector_47" d="M79.497,58.608c0.191,0.054 0.299,0.084 0.319,0.084c0.049,0 0.093,-0.015 0.132,-0.04c0.044,-0.024 0.074,-0.068 0.088,-0.127h0.103l0.045,1.154h-0.113c-0.069,-0.231 -0.152,-0.413 -0.26,-0.555c-0.206,-0.265 -0.481,-0.398 -0.829,-0.398c-0.349,0 -0.638,0.142 -0.864,0.427c-0.22,0.285 -0.333,0.678 -0.333,1.174c0,0.457 0.118,0.826 0.353,1.101c0.236,0.275 0.53,0.407 0.893,0.407c0.26,0 0.5,-0.063 0.716,-0.191c0.128,-0.074 0.265,-0.182 0.412,-0.324l0.093,0.093c-0.113,0.142 -0.25,0.27 -0.412,0.378c-0.279,0.187 -0.584,0.275 -0.912,0.275c-0.54,0 -0.967,-0.177 -1.28,-0.53c-0.29,-0.324 -0.437,-0.732 -0.437,-1.223c0,-0.492 0.152,-0.919 0.461,-1.258c0.324,-0.359 0.746,-0.535 1.271,-0.535c0.181,0 0.367,0.029 0.559,0.083" fill="#231F20"/>
<path id="Vector_48" d="M81.381,59.777c0.235,0 0.417,0.128 0.544,0.383c0.128,0.256 0.187,0.531 0.187,0.821c0,0.29 -0.049,0.506 -0.148,0.678c-0.098,0.172 -0.24,0.26 -0.421,0.26c-0.231,0 -0.412,-0.128 -0.545,-0.388c-0.132,-0.26 -0.196,-0.536 -0.196,-0.835c0,-0.373 0.083,-0.639 0.245,-0.791c0.093,-0.088 0.206,-0.133 0.334,-0.133M80.351,60.819c0,0.358 0.108,0.653 0.323,0.889c0.216,0.236 0.481,0.353 0.795,0.353c0.314,0 0.589,-0.122 0.795,-0.368c0.206,-0.246 0.309,-0.535 0.309,-0.869c0,-0.364 -0.108,-0.654 -0.319,-0.87c-0.211,-0.216 -0.481,-0.324 -0.8,-0.324c-0.319,0 -0.588,0.113 -0.794,0.344c-0.206,0.231 -0.309,0.511 -0.309,0.845z" fill="#231F20"/>
<path id="Vector_49" d="M82.47,61.899c0.152,-0.014 0.25,-0.039 0.299,-0.078c0.049,-0.04 0.074,-0.128 0.074,-0.261v-1.139c0,-0.162 -0.015,-0.28 -0.045,-0.354c-0.029,-0.069 -0.083,-0.108 -0.161,-0.108c-0.015,0 -0.04,0 -0.064,0.005c-0.025,0 -0.054,0.01 -0.084,0.015v-0.084c0.094,-0.034 0.187,-0.069 0.285,-0.103c0.098,-0.034 0.162,-0.059 0.201,-0.074c0.083,-0.029 0.162,-0.068 0.25,-0.108c0.01,0 0.02,0 0.02,0.015c0,0.01 0,0.029 0,0.054v0.408c0.103,-0.148 0.206,-0.266 0.304,-0.349c0.098,-0.084 0.196,-0.123 0.304,-0.123c0.083,0 0.152,0.025 0.201,0.074c0.054,0.049 0.079,0.113 0.079,0.191c0,0.069 -0.02,0.128 -0.059,0.172c-0.039,0.049 -0.089,0.069 -0.152,0.069c-0.064,0 -0.123,-0.029 -0.187,-0.088c-0.063,-0.059 -0.113,-0.089 -0.147,-0.089c-0.059,0 -0.127,0.049 -0.211,0.143c-0.083,0.093 -0.122,0.191 -0.122,0.294v1.135c0,0.143 0.034,0.241 0.098,0.3c0.063,0.054 0.176,0.083 0.328,0.078v0.084h-1.206v-0.084z" fill="#231F20"/>
<path id="Vector_50" d="M84.936,61.521v-1.258c0,-0.073 0.049,-0.147 0.147,-0.225c0.098,-0.079 0.211,-0.113 0.329,-0.113c0.172,0 0.319,0.073 0.451,0.226c0.128,0.152 0.197,0.383 0.197,0.687c0,0.305 -0.064,0.57 -0.187,0.752c-0.123,0.177 -0.275,0.27 -0.451,0.27c-0.113,0 -0.211,-0.03 -0.295,-0.084c-0.083,-0.054 -0.147,-0.142 -0.191,-0.255zM84.161,63.103h1.207v-0.089c-0.182,-0.014 -0.299,-0.039 -0.353,-0.078c-0.054,-0.04 -0.079,-0.143 -0.079,-0.31v-0.82c0.088,0.093 0.187,0.162 0.29,0.196c0.068,0.025 0.147,0.035 0.235,0.035c0.294,0 0.54,-0.138 0.736,-0.408c0.196,-0.27 0.294,-0.575 0.294,-0.909c0,-0.334 -0.078,-0.609 -0.245,-0.805c-0.162,-0.197 -0.358,-0.295 -0.579,-0.295c-0.157,0 -0.304,0.049 -0.451,0.142c-0.084,0.054 -0.177,0.138 -0.285,0.246v-0.334c0,0 0,-0.02 -0.005,-0.025c0,-0.004 -0.009,-0.009 -0.019,-0.009c-0.319,0.113 -0.481,0.172 -0.491,0.172l-0.23,0.078v0.084c0.029,0 0.049,-0.01 0.068,-0.01c0.015,0 0.035,0 0.049,0c0.084,0 0.138,0.019 0.172,0.054c0.03,0.034 0.044,0.118 0.044,0.241v2.402c0,0.122 -0.019,0.211 -0.064,0.265c-0.039,0.054 -0.137,0.088 -0.289,0.098v0.084z" fill="#231F20"/>
<path id="Vector_51" d="M87.679,59.777c0.235,0 0.417,0.128 0.544,0.383c0.128,0.256 0.186,0.531 0.186,0.821c0,0.29 -0.049,0.506 -0.147,0.678c-0.098,0.172 -0.24,0.26 -0.422,0.26c-0.23,0 -0.412,-0.128 -0.544,-0.388c-0.132,-0.26 -0.196,-0.536 -0.196,-0.835c0,-0.373 0.083,-0.639 0.245,-0.791c0.093,-0.088 0.206,-0.133 0.334,-0.133M86.644,60.819c0,0.358 0.107,0.653 0.323,0.889c0.216,0.236 0.481,0.353 0.795,0.353c0.314,0 0.589,-0.122 0.795,-0.368c0.206,-0.246 0.309,-0.535 0.309,-0.869c0,-0.364 -0.108,-0.654 -0.319,-0.87c-0.211,-0.216 -0.481,-0.324 -0.8,-0.324c-0.319,0 -0.588,0.113 -0.794,0.344c-0.206,0.231 -0.309,0.511 -0.309,0.845z" fill="#231F20"/>
<path id="Vector_52" d="M88.764,61.899c0.152,-0.014 0.25,-0.039 0.299,-0.078c0.049,-0.04 0.073,-0.128 0.073,-0.261v-1.139c0,-0.162 -0.014,-0.28 -0.044,-0.354c-0.029,-0.069 -0.083,-0.108 -0.162,-0.108c-0.014,0 -0.039,0 -0.063,0.005c-0.025,0 -0.054,0.01 -0.084,0.015v-0.084c0.093,-0.034 0.187,-0.069 0.285,-0.103c0.098,-0.034 0.167,-0.059 0.201,-0.074c0.078,-0.029 0.167,-0.068 0.25,-0.108c0.01,0 0.02,0 0.02,0.015c0,0.01 0,0.029 0,0.054v0.408c0.103,-0.148 0.206,-0.266 0.304,-0.349c0.098,-0.084 0.196,-0.123 0.304,-0.123c0.083,0 0.152,0.025 0.201,0.074c0.054,0.049 0.079,0.113 0.079,0.191c0,0.069 -0.02,0.128 -0.059,0.172c-0.04,0.049 -0.089,0.069 -0.152,0.069c-0.064,0 -0.123,-0.029 -0.187,-0.088c-0.064,-0.059 -0.113,-0.089 -0.147,-0.089c-0.059,0 -0.127,0.049 -0.211,0.143c-0.083,0.093 -0.122,0.191 -0.122,0.294v1.135c0,0.143 0.034,0.241 0.098,0.3c0.063,0.054 0.176,0.083 0.328,0.078v0.084h-1.206v-0.084z" fill="#231F20"/>
<path id="Vector_53" d="M91.623,61.393c0,0.094 -0.049,0.172 -0.147,0.236c-0.098,0.064 -0.201,0.093 -0.309,0.093c-0.079,0 -0.147,-0.024 -0.211,-0.068c-0.098,-0.074 -0.147,-0.182 -0.147,-0.334c0,-0.187 0.117,-0.359 0.353,-0.506c0.122,-0.079 0.279,-0.148 0.466,-0.212v0.796zM90.372,61.487c0,0.157 0.049,0.285 0.152,0.383c0.103,0.103 0.226,0.152 0.363,0.152c0.137,0 0.275,-0.044 0.422,-0.137c0.088,-0.054 0.196,-0.138 0.319,-0.246c0.005,0.103 0.034,0.192 0.083,0.265c0.049,0.074 0.133,0.113 0.241,0.113c0.093,0 0.186,-0.029 0.279,-0.093c0.059,-0.039 0.118,-0.093 0.167,-0.157v-0.138c-0.059,0.049 -0.103,0.079 -0.128,0.093c-0.024,0.015 -0.054,0.02 -0.093,0.02c-0.068,0 -0.113,-0.034 -0.132,-0.108c-0.015,-0.039 -0.02,-0.103 -0.02,-0.201v-1.007c0,-0.221 -0.029,-0.388 -0.088,-0.501c-0.113,-0.212 -0.329,-0.315 -0.643,-0.315c-0.27,0 -0.48,0.064 -0.618,0.192c-0.142,0.128 -0.211,0.25 -0.211,0.368c0,0.059 0.02,0.113 0.059,0.162c0.039,0.049 0.093,0.074 0.167,0.074c0.049,0 0.088,-0.01 0.123,-0.034c0.058,-0.035 0.088,-0.104 0.088,-0.197c0,-0.015 0,-0.044 -0.015,-0.093c-0.01,-0.049 -0.015,-0.084 -0.015,-0.103c0,-0.079 0.04,-0.138 0.113,-0.187c0.074,-0.044 0.157,-0.064 0.241,-0.064c0.176,0 0.289,0.054 0.348,0.167c0.034,0.069 0.049,0.187 0.049,0.354v0.211c-0.446,0.172 -0.751,0.31 -0.898,0.408c-0.235,0.162 -0.353,0.363 -0.353,0.609z" fill="#231F20"/>
<path id="Vector_54" d="M93.536,59.679v0.182h-0.496v1.439c0,0.128 0.005,0.221 0.025,0.285c0.039,0.113 0.118,0.172 0.23,0.172c0.059,0 0.108,-0.015 0.153,-0.044c0.044,-0.03 0.093,-0.074 0.147,-0.133l0.063,0.054l-0.053,0.074c-0.084,0.118 -0.172,0.201 -0.27,0.25c-0.093,0.049 -0.187,0.074 -0.275,0.074c-0.191,0 -0.324,-0.088 -0.392,-0.26c-0.04,-0.094 -0.054,-0.226 -0.054,-0.393v-1.518h-0.265c0,0 -0.015,-0.01 -0.02,-0.015c0,0 -0.005,-0.01 -0.005,-0.02c0,-0.014 0,-0.029 0.01,-0.039c0.005,-0.01 0.029,-0.029 0.069,-0.064c0.113,-0.093 0.191,-0.172 0.24,-0.231c0.049,-0.059 0.167,-0.216 0.348,-0.471c0.02,0 0.035,0 0.04,0.005c0,0 0.004,0.014 0.004,0.039v0.614h0.491z" fill="#231F20"/>
<path id="Vector_55" d="M94.047,58.559c0.049,-0.049 0.108,-0.079 0.181,-0.079c0.074,0 0.128,0.025 0.182,0.079c0.049,0.049 0.073,0.113 0.073,0.187c0,0.073 -0.024,0.132 -0.073,0.181c-0.049,0.05 -0.108,0.074 -0.182,0.074c-0.073,0 -0.132,-0.024 -0.181,-0.074c-0.049,-0.049 -0.074,-0.113 -0.074,-0.181c0,-0.069 0.025,-0.133 0.074,-0.187zM93.659,61.914c0.177,-0.015 0.285,-0.049 0.329,-0.093c0.044,-0.044 0.069,-0.162 0.069,-0.359v-1.189c0,-0.108 -0.005,-0.181 -0.025,-0.226c-0.024,-0.068 -0.078,-0.103 -0.152,-0.103c-0.02,0 -0.034,0 -0.054,0.005c-0.015,0 -0.069,0.015 -0.147,0.04v-0.079l0.103,-0.034c0.284,-0.094 0.485,-0.167 0.598,-0.217c0.044,-0.019 0.074,-0.029 0.089,-0.029c0,0.01 0,0.024 0,0.039v1.798c0,0.192 0.024,0.31 0.068,0.359c0.044,0.049 0.147,0.078 0.304,0.093v0.069h-1.192v-0.069z" fill="#231F20"/>
<path id="Vector_56" d="M95.783,59.777c0.236,0 0.417,0.128 0.545,0.383c0.122,0.256 0.186,0.531 0.186,0.821c0,0.29 -0.049,0.506 -0.147,0.678c-0.098,0.172 -0.241,0.26 -0.422,0.26c-0.231,0 -0.412,-0.128 -0.545,-0.388c-0.132,-0.26 -0.196,-0.536 -0.196,-0.835c0,-0.373 0.084,-0.639 0.246,-0.791c0.093,-0.088 0.206,-0.133 0.333,-0.133M94.748,60.819c0,0.358 0.108,0.653 0.324,0.889c0.216,0.236 0.481,0.353 0.794,0.353c0.314,0 0.589,-0.122 0.795,-0.368c0.206,-0.246 0.309,-0.535 0.309,-0.869c0,-0.364 -0.108,-0.654 -0.319,-0.87c-0.211,-0.216 -0.48,-0.324 -0.799,-0.324c-0.319,0 -0.589,0.113 -0.795,0.344c-0.206,0.231 -0.309,0.511 -0.309,0.845z" fill="#231F20"/>
<path id="Vector_57" d="M96.98,61.914c0.112,-0.015 0.196,-0.044 0.24,-0.088c0.044,-0.045 0.069,-0.143 0.069,-0.295v-1.272c0,-0.108 -0.01,-0.182 -0.03,-0.226c-0.029,-0.064 -0.093,-0.094 -0.191,-0.094c-0.015,0 -0.03,0 -0.044,0c-0.015,0 -0.035,0 -0.059,0.01v-0.088c0.064,-0.02 0.225,-0.074 0.471,-0.157l0.23,-0.079c0,0 0.02,0 0.02,0.015c0,0.009 0,0.019 0,0.034v0.364c0.147,-0.143 0.265,-0.241 0.348,-0.295c0.128,-0.084 0.26,-0.123 0.398,-0.123c0.107,0 0.21,0.034 0.304,0.098c0.176,0.128 0.265,0.354 0.265,0.678v1.169c0,0.123 0.024,0.207 0.068,0.261c0.049,0.054 0.128,0.083 0.236,0.083v0.069h-1.045v-0.069c0.118,-0.015 0.201,-0.049 0.25,-0.103c0.049,-0.049 0.069,-0.162 0.069,-0.334v-1.071c0,-0.142 -0.025,-0.26 -0.079,-0.359c-0.054,-0.093 -0.147,-0.142 -0.284,-0.142c-0.093,0 -0.192,0.034 -0.29,0.098c-0.054,0.04 -0.127,0.103 -0.211,0.192v1.405c0,0.118 0.025,0.201 0.079,0.24c0.054,0.04 0.137,0.064 0.25,0.064v0.069h-1.064v-0.069z" fill="#231F20"/>
<path id="Vector_58" fill-rule="evenodd" clip-rule="evenodd" d="M48.966,61.133l-0.692,-0.889c-0.206,0.123 -0.343,0.241 -0.417,0.349c-0.074,0.108 -0.108,0.211 -0.108,0.319c0,0.128 0.049,0.26 0.152,0.398c0.098,0.137 0.24,0.206 0.422,0.206c0.113,0 0.231,-0.034 0.353,-0.108c0.123,-0.074 0.221,-0.162 0.294,-0.275M48.426,59.787c0.167,-0.098 0.275,-0.187 0.324,-0.265c0.049,-0.074 0.073,-0.157 0.073,-0.251c0,-0.108 -0.034,-0.196 -0.103,-0.265c-0.068,-0.069 -0.152,-0.103 -0.25,-0.103c-0.098,0 -0.191,0.034 -0.26,0.103c-0.069,0.069 -0.103,0.152 -0.103,0.251c0,0.049 0.01,0.103 0.039,0.157c0.025,0.054 0.059,0.113 0.113,0.172l0.172,0.201zM49.206,61.438c-0.128,0.142 -0.265,0.25 -0.412,0.319c-0.147,0.069 -0.309,0.108 -0.481,0.108c-0.319,0 -0.569,-0.108 -0.755,-0.329c-0.152,-0.177 -0.226,-0.378 -0.226,-0.599c0,-0.197 0.059,-0.374 0.186,-0.531c0.123,-0.157 0.31,-0.295 0.555,-0.418c-0.142,-0.162 -0.236,-0.299 -0.28,-0.402c-0.049,-0.103 -0.069,-0.202 -0.069,-0.295c0,-0.192 0.074,-0.359 0.221,-0.496c0.147,-0.143 0.329,-0.211 0.555,-0.211c0.225,0 0.382,0.068 0.52,0.201c0.132,0.133 0.201,0.295 0.201,0.481c0,0.305 -0.197,0.56 -0.589,0.777l0.559,0.722c0.064,-0.128 0.113,-0.275 0.147,-0.442l0.393,0.088c-0.069,0.275 -0.157,0.501 -0.275,0.678c0.142,0.191 0.304,0.354 0.481,0.486l-0.255,0.31c-0.152,-0.099 -0.309,-0.251 -0.471,-0.442zM34.298,61.816v-2.004h-0.338v-0.3h0.338v-0.246c0,-0.152 0.015,-0.27 0.04,-0.343c0.034,-0.104 0.098,-0.182 0.191,-0.246c0.093,-0.064 0.221,-0.093 0.388,-0.093c0.107,0 0.225,0.014 0.353,0.039l-0.059,0.344c-0.079,-0.015 -0.152,-0.02 -0.226,-0.02c-0.118,0 -0.196,0.025 -0.245,0.074c-0.049,0.049 -0.074,0.142 -0.074,0.28v0.211h0.437v0.3h-0.432v2.004h-0.382zM32.047,60.666c0,0.295 0.064,0.516 0.186,0.664c0.128,0.147 0.285,0.221 0.476,0.221c0.191,0 0.348,-0.074 0.471,-0.221c0.128,-0.148 0.186,-0.374 0.186,-0.673c0,-0.285 -0.063,-0.501 -0.191,-0.644c-0.127,-0.147 -0.284,-0.221 -0.471,-0.221c-0.186,0 -0.348,0.074 -0.476,0.216c-0.127,0.148 -0.186,0.364 -0.186,0.658zM31.659,60.666c0,-0.427 0.118,-0.741 0.349,-0.948c0.191,-0.172 0.426,-0.255 0.706,-0.255c0.309,0 0.559,0.103 0.755,0.309c0.197,0.207 0.295,0.492 0.295,0.86c0,0.295 -0.044,0.531 -0.128,0.698c-0.088,0.171 -0.211,0.299 -0.377,0.392c-0.167,0.094 -0.349,0.143 -0.54,0.143c-0.314,0 -0.569,-0.103 -0.76,-0.31c-0.197,-0.206 -0.29,-0.505 -0.29,-0.894zM28.481,60.445h1.251c-0.015,-0.191 -0.064,-0.339 -0.143,-0.437c-0.122,-0.152 -0.279,-0.226 -0.471,-0.226c-0.176,0 -0.318,0.059 -0.441,0.182c-0.118,0.118 -0.187,0.28 -0.196,0.481zM29.727,61.069l0.392,0.054c-0.064,0.236 -0.177,0.418 -0.343,0.545c-0.167,0.128 -0.383,0.197 -0.643,0.197c-0.329,0 -0.589,-0.103 -0.78,-0.31c-0.191,-0.206 -0.289,-0.496 -0.289,-0.869c0,-0.373 0.098,-0.688 0.289,-0.899c0.196,-0.216 0.447,-0.319 0.756,-0.319c0.309,0 0.544,0.103 0.735,0.314c0.192,0.211 0.285,0.506 0.285,0.884c0,0.025 0,0.059 0,0.104h-1.673c0.015,0.25 0.084,0.447 0.211,0.579c0.123,0.133 0.28,0.202 0.466,0.202c0.137,0 0.26,-0.04 0.358,-0.113c0.098,-0.074 0.177,-0.197 0.236,-0.364zM26.749,61.816v-2.304h0.343v0.354c0.089,-0.162 0.167,-0.27 0.241,-0.325c0.073,-0.054 0.157,-0.078 0.245,-0.078c0.128,0 0.26,0.039 0.393,0.123l-0.138,0.358c-0.093,-0.054 -0.186,-0.078 -0.275,-0.078c-0.083,0 -0.157,0.024 -0.22,0.078c-0.064,0.049 -0.113,0.123 -0.143,0.212c-0.044,0.137 -0.063,0.289 -0.063,0.456v1.204zM25.812,61.816v-0.344c-0.176,0.26 -0.412,0.393 -0.711,0.393c-0.133,0 -0.255,-0.025 -0.368,-0.079c-0.113,-0.054 -0.201,-0.118 -0.255,-0.196c-0.054,-0.079 -0.093,-0.177 -0.118,-0.29c-0.015,-0.079 -0.024,-0.196 -0.024,-0.363v-1.425h0.382v1.277c0,0.202 0.01,0.339 0.025,0.413c0.024,0.103 0.073,0.182 0.152,0.241c0.078,0.058 0.172,0.088 0.284,0.088c0.113,0 0.221,-0.03 0.319,-0.088c0.098,-0.059 0.172,-0.143 0.211,-0.246c0.039,-0.103 0.064,-0.256 0.064,-0.447v-1.233h0.383v2.304h-0.344zM23.973,61.467l0.054,0.344c-0.108,0.024 -0.202,0.034 -0.285,0.034c-0.137,0 -0.245,-0.024 -0.319,-0.068c-0.073,-0.045 -0.127,-0.104 -0.162,-0.177c-0.029,-0.074 -0.044,-0.226 -0.044,-0.462v-1.326h-0.279v-0.3h0.279v-0.57l0.383,-0.236v0.806h0.382v0.3h-0.382v1.351c0,0.112 0.005,0.181 0.019,0.216c0.015,0.029 0.035,0.059 0.064,0.078c0.03,0.02 0.074,0.03 0.128,0.03c0.044,0 0.098,-0.005 0.167,-0.015zM20.735,61.816v-2.304h0.343v0.329c0.167,-0.25 0.403,-0.378 0.712,-0.378c0.137,0 0.26,0.024 0.373,0.074c0.112,0.049 0.196,0.117 0.255,0.196c0.054,0.079 0.098,0.177 0.117,0.29c0.015,0.074 0.02,0.201 0.02,0.378v1.415h-0.383v-1.4c0,-0.157 -0.014,-0.28 -0.044,-0.359c-0.029,-0.078 -0.083,-0.142 -0.157,-0.186c-0.073,-0.05 -0.162,-0.069 -0.265,-0.069c-0.162,0 -0.299,0.054 -0.417,0.157c-0.117,0.103 -0.176,0.305 -0.176,0.599v1.258h-0.383zM18.616,60.445h1.251c-0.015,-0.191 -0.064,-0.339 -0.142,-0.437c-0.123,-0.152 -0.28,-0.226 -0.471,-0.226c-0.177,0 -0.319,0.059 -0.442,0.182c-0.118,0.118 -0.186,0.28 -0.196,0.481zM19.862,61.069l0.392,0.054c-0.063,0.236 -0.176,0.418 -0.343,0.545c-0.167,0.128 -0.383,0.197 -0.643,0.197c-0.328,0 -0.588,-0.103 -0.78,-0.31c-0.191,-0.206 -0.289,-0.496 -0.289,-0.869c0,-0.373 0.098,-0.688 0.289,-0.899c0.197,-0.216 0.447,-0.319 0.756,-0.319c0.309,0 0.544,0.103 0.731,0.314c0.191,0.211 0.284,0.506 0.284,0.884c0,0.025 0,0.059 0,0.104h-1.672c0.014,0.25 0.083,0.447 0.21,0.579c0.123,0.133 0.28,0.202 0.466,0.202c0.138,0 0.26,-0.04 0.359,-0.113c0.098,-0.074 0.176,-0.197 0.235,-0.364zM16.615,61.816l-1.197,-3.178h0.446l0.805,2.308c0.063,0.187 0.117,0.359 0.161,0.521c0.049,-0.172 0.103,-0.349 0.167,-0.521l0.834,-2.308h0.417l-1.207,3.178zM14.103,61.467l0.054,0.344c-0.108,0.024 -0.201,0.034 -0.285,0.034c-0.137,0 -0.245,-0.024 -0.318,-0.068c-0.074,-0.045 -0.128,-0.104 -0.162,-0.177c-0.03,-0.074 -0.044,-0.226 -0.044,-0.462v-1.326h-0.28v-0.3h0.28v-0.57l0.382,-0.236v0.806h0.383v0.3h-0.383v1.351c0,0.112 0.005,0.181 0.02,0.216c0.015,0.029 0.034,0.059 0.064,0.078c0.029,0.02 0.073,0.03 0.127,0.03c0.044,0 0.098,-0.005 0.167,-0.015zM10.87,61.816v-2.304h0.344v0.329c0.166,-0.25 0.402,-0.378 0.711,-0.378c0.137,0 0.26,0.024 0.373,0.074c0.113,0.049 0.196,0.117 0.255,0.196c0.054,0.079 0.098,0.177 0.118,0.29c0.014,0.074 0.019,0.201 0.019,0.378v1.415h-0.382v-1.4c0,-0.157 -0.015,-0.28 -0.045,-0.359c-0.029,-0.078 -0.083,-0.142 -0.157,-0.186c-0.073,-0.05 -0.161,-0.069 -0.264,-0.069c-0.162,0 -0.3,0.054 -0.417,0.157c-0.118,0.103 -0.177,0.305 -0.177,0.599v1.258h-0.383zM9.909,61.816v-2.304h0.382v2.304zM9.909,59.08v-0.442h0.382v0.442zM7.751,60.666c0,0.295 0.063,0.516 0.186,0.664c0.127,0.147 0.284,0.221 0.476,0.221c0.191,0 0.348,-0.074 0.471,-0.221c0.127,-0.148 0.186,-0.374 0.186,-0.673c0,-0.285 -0.064,-0.501 -0.191,-0.644c-0.128,-0.147 -0.285,-0.221 -0.471,-0.221c-0.187,0 -0.348,0.074 -0.476,0.216c-0.128,0.148 -0.186,0.364 -0.186,0.658zM7.363,60.666c0,-0.427 0.118,-0.741 0.348,-0.948c0.192,-0.172 0.427,-0.255 0.707,-0.255c0.309,0 0.559,0.103 0.755,0.309c0.196,0.207 0.294,0.492 0.294,0.86c0,0.295 -0.044,0.531 -0.127,0.698c-0.088,0.171 -0.211,0.299 -0.378,0.392c-0.167,0.094 -0.348,0.143 -0.539,0.143c-0.314,0 -0.569,-0.103 -0.761,-0.31c-0.196,-0.206 -0.289,-0.505 -0.289,-0.894zM5.18,60.912l0.368,-0.054c0.01,0.246 0.054,0.408 0.132,0.501c0.079,0.088 0.187,0.133 0.329,0.133c0.103,0 0.191,-0.025 0.265,-0.074c0.074,-0.049 0.128,-0.113 0.152,-0.197c0.029,-0.083 0.044,-0.216 0.044,-0.397v-2.191h0.412v2.166c0,0.265 -0.029,0.472 -0.093,0.619c-0.064,0.147 -0.162,0.255 -0.299,0.334c-0.138,0.079 -0.294,0.113 -0.476,0.113c-0.27,0 -0.481,-0.079 -0.623,-0.241c-0.142,-0.162 -0.216,-0.398 -0.206,-0.717zM2.09,60.509h1.054l-0.323,-0.879c-0.099,-0.27 -0.172,-0.491 -0.221,-0.663c-0.044,0.206 -0.098,0.412 -0.172,0.614l-0.338,0.933zM1.197,61.816l1.187,-3.178h0.451l1.261,3.178h-0.466l-0.358,-0.963h-1.305l-0.338,0.963h-0.437zM99.991,62.774h-0.279c0.431,-0.713 0.647,-1.42 0.647,-2.132c0,-0.28 -0.029,-0.555 -0.093,-0.825c-0.049,-0.221 -0.118,-0.438 -0.206,-0.639c-0.054,-0.133 -0.172,-0.354 -0.348,-0.663h0.279c0.27,0.373 0.471,0.746 0.599,1.12c0.113,0.324 0.167,0.658 0.167,1.012c0,0.398 -0.074,0.786 -0.226,1.159c-0.147,0.373 -0.329,0.698 -0.545,0.978zM0.765,62.774c-0.216,-0.28 -0.397,-0.604 -0.544,-0.978c-0.147,-0.373 -0.221,-0.761 -0.221,-1.159c0,-0.354 0.054,-0.688 0.167,-1.012c0.132,-0.373 0.328,-0.747 0.598,-1.12h0.28c-0.177,0.309 -0.29,0.526 -0.348,0.658c-0.089,0.207 -0.157,0.418 -0.206,0.639c-0.064,0.275 -0.094,0.555 -0.094,0.835c0,0.712 0.216,1.424 0.648,2.132h-0.28z" fill="#231F20"/>
<path id="Vector_59" d="M53.429,57.302l0.903,1.596l-0.903,1.596l-0.898,-1.596z" fill="#ED1C24"/>
<path id="Vector_60" d="M51.634,60.494h1.795l-0.897,1.597h-1.796z" fill="#ED1C24"/>
<path id="Vector_61" d="M53.43,60.494h1.8l0.898,1.597h-1.801z" fill="#ED1C24"/>
</g>
</g></svg>